<?xml version="1.0" encoding="UTF-8" standalone="no"?>
<svg
   data-name="Layer 1"
   version="1.1"
   viewBox="0 0 766.88226 484.55641"
   id="svg1222"
   sodipodi:docname="undrawBreakfast2.svg"
   inkscape:version="1.1 (c4e8f9e, 2021-05-24)"
   width="766.88226"
   height="484.5564"
   xmlns:inkscape="http://www.inkscape.org/namespaces/inkscape"
   xmlns:sodipodi="http://sodipodi.sourceforge.net/DTD/sodipodi-0.dtd"
   xmlns="http://www.w3.org/2000/svg"
   xmlns:svg="http://www.w3.org/2000/svg"
   xmlns:rdf="http://www.w3.org/1999/02/22-rdf-syntax-ns#"
   xmlns:cc="http://creativecommons.org/ns#"
   xmlns:dc="http://purl.org/dc/elements/1.1/">
  <defs
     id="defs1226" />
  <sodipodi:namedview
     id="namedview1224"
     pagecolor="#ffffff"
     bordercolor="#666666"
     borderopacity="1.0"
     inkscape:pageshadow="2"
     inkscape:pageopacity="0.0"
     inkscape:pagecheckerboard="0"
     showgrid="false"
     inkscape:zoom="0.5046719"
     inkscape:cx="365.58406"
     inkscape:cy="189.23186"
     inkscape:window-width="1296"
     inkscape:window-height="847"
     inkscape:window-x="0"
     inkscape:window-y="25"
     inkscape:window-maximized="0"
     inkscape:current-layer="svg1222"
     fit-margin-top="0"
     fit-margin-left="0"
     fit-margin-right="0"
     fit-margin-bottom="0"
     viewbox-height="1e-05" />
  <title
     id="title966">breakfast</title>
  <path
     d="m 58.342282,253.04 h -28.419 a 3.7678,3.7678 0 0 0 -3.7678,3.7678 v 12.474 a 3.7678,3.7678 0 0 0 3.7678,3.7678 h 4.7094 v 18.69 h 19 v -18.69 h 4.7094 a 3.7678,3.7678 0 0 0 3.7678,-3.7678 v -12.474 a 3.7678,3.7678 0 0 0 -3.7678,-3.7678 z"
     fill="#6c63ff"
     id="path968" />
  <path
     d="m 86.812282,367.2 a 146.11,146.11 0 0 1 -25.418,-86.624 3.0814,3.0814 0 0 0 -2.4052,-3.075 v -5.3899 h -30.014 v 5.315 h -0.41356 a 3.0797,3.0797 0 0 0 -3.0672,3.3079 q 3.5468,49.442 -23.9540002,88.677 a 8.4873,8.4873 0 0 0 -1.53610002,5.1435 l 3.28190002,101.52 a 8.7882,8.7882 0 0 0 8.7130002,8.4819 h 67.887 a 8.7912,8.7912 0 0 0 8.7182,-8.6315 l 1.2647,-98.566 a 17.789,17.789 0 0 0 -3.0574,-10.157 z"
     fill="#3f3d56"
     id="path970" />
  <path
     d="m 52.422282,257.1 a 8.129,8.129 0 0 1 -16.258,0"
     opacity="0.2"
     id="path972" />
  <path
     d="m 76.062282,400.92 h -8.2206 a 21.576,21.576 0 0 0 -42.649,0 h -8.2212 a 6.0667,6.0667 0 0 0 -5.9962,6.9892 l 8.9294,58.041 h 51.274 l 10.846,-57.846 a 6.0667,6.0667 0 0 0 -5.9628,-7.1847 z"
     fill="#6c63ff"
     id="path974" />
  <polygon
     points="823.54,484.18 740.41,484.18 737.55,369.68 736,307.63 827.95,307.63 825.98,386.45 "
     fill="#e6e6e6"
     id="polygon976"
     transform="translate(-61.067718)" />
  <rect
     x="714.65228"
     y="265.70001"
     width="11.77"
     height="155.95"
     fill="#6c63ff"
     id="rect978" />
  <path
     d="m 761.00228,367.02 -2.2261,112.02 h -75.767 l -2.6083,-131.24 a 51.634,51.634 0 0 1 40.827,5.6154 c 12.659,7.4871 26.88,11.517 39.774,13.608 z"
     fill="#3f3d56"
     id="path980" />
  <g
     fill="#e6e6e6"
     id="g992"
     transform="translate(-61.067718)">
    <rect
       x="752.03003"
       y="379.63"
       width="10.8"
       height="10.8"
       id="rect982" />
    <rect
       x="759.39001"
       y="357.56"
       width="10.8"
       height="10.8"
       id="rect984" />
    <rect
       transform="rotate(36.563,1177.4975,241.48012)"
       x="936.41998"
       y="575.82001"
       width="10.8"
       height="10.8"
       id="rect986" />
    <rect
       transform="rotate(36.563,1197.0087,260.60071)"
       x="955.94"
       y="594.95001"
       width="10.8"
       height="10.8"
       id="rect988" />
    <rect
       transform="rotate(36.563,1163.9082,271.63652)"
       x="922.83002"
       y="605.98999"
       width="10.8"
       height="10.8"
       id="rect990" />
  </g>
  <g
     fill="#3f3d56"
     id="g1000"
     transform="translate(-61.067718)">
    <circle
       cx="805.15002"
       cy="351.04001"
       r="2.2068"
       id="circle994" />
    <circle
       cx="760.28003"
       cy="336.32001"
       r="2.2068"
       id="circle996" />
    <circle
       cx="797.78998"
       cy="320.87"
       r="2.2068"
       id="circle998" />
  </g>
  <circle
     cx="383.44229"
     cy="241.75"
     r="241.75"
     fill="#6c63ff"
     id="circle1002" />
  <path
     d="m 383.44228,418.21 a 176.46,176.46 0 1 1 124.77,-51.683 175.3,175.3 0 0 1 -124.77,51.683 z m 0,-342.03 c -91.298,0 -165.57,74.276 -165.57,165.57 0,91.298 74.276,165.57 165.57,165.57 91.298,0 165.57,-74.277 165.57,-165.57 0,-91.298 -74.277,-165.57 -165.57,-165.57 z"
     opacity="0.2"
     id="path1004" />
  <circle
     cx="383.44229"
     cy="241.75"
     r="171.02"
     fill="#3f3d56"
     id="circle1006" />
  <path
     d="m 256.26228,173.37 a 21.704,21.704 0 1 1 38.681,-19.698 l 48.316,94.878 a 21.704,21.704 0 1 1 -38.681,19.698 z"
     fill="#ff6584"
     id="path1008" />
  <path
     d="m 261.65228,183.95 -2.23,-4.379 c 11.129,-8.6474 24.198,-15.007 38.681,-19.698 l 2.23,4.379 c -15.675,3.2643 -29.012,9.3052 -38.681,19.698 z"
     opacity="0.2"
     id="path1010" />
  <path
     d="m 272.05228,204.39 -2.23,-4.379 c 11.129,-8.6474 24.198,-15.007 38.681,-19.698 l 2.23,4.379 c -15.675,3.2643 -29.012,9.3052 -38.681,19.698 z"
     opacity="0.2"
     id="path1012" />
  <path
     d="m 282.46228,224.82 -2.23,-4.379 c 11.129,-8.6474 24.198,-15.007 38.681,-19.698 l 2.23,4.379 c -15.675,3.2643 -29.012,9.3052 -38.681,19.698 z"
     opacity="0.2"
     id="path1014" />
  <path
     d="m 292.87228,245.26 -2.23,-4.379 c 11.129,-8.6474 24.198,-15.007 38.681,-19.698 l 2.23,4.379 c -15.675,3.2643 -29.012,9.3052 -38.681,19.698 z"
     opacity="0.2"
     id="path1016" />
  <path
     d="m 303.27228,265.69 -2.23,-4.379 c 11.129,-8.6474 24.198,-15.007 38.681,-19.698 l 2.23,4.379 c -15.675,3.2643 -29.012,9.3052 -38.681,19.698 z"
     opacity="0.2"
     id="path1018" />
  <path
     d="m 220.01228,208.89 a 21.704,21.704 0 1 1 38.681,-19.698 l 48.316,94.878 a 21.704,21.704 0 0 1 -38.681,19.698 z"
     fill="#ff6584"
     id="path1020" />
  <path
     d="m 225.40228,219.47 -2.23,-4.379 c 11.129,-8.6474 24.198,-15.007 38.681,-19.698 l 2.23,4.379 c -15.675,3.2643 -29.012,9.3052 -38.681,19.698 z"
     opacity="0.2"
     id="path1022" />
  <path
     d="m 235.80228,239.9 -2.23,-4.379 c 11.129,-8.6474 24.198,-15.007 38.681,-19.698 l 2.23,4.379 c -15.675,3.2643 -29.012,9.3052 -38.681,19.698 z"
     opacity="0.2"
     id="path1024" />
  <path
     d="m 246.21228,260.34 -2.23,-4.379 c 11.129,-8.6474 24.198,-15.007 38.681,-19.698 l 2.23,4.379 c -15.675,3.2643 -29.012,9.3052 -38.681,19.698 z"
     opacity="0.2"
     id="path1026" />
  <path
     d="m 256.62228,280.78 -2.23,-4.379 c 11.129,-8.6474 24.198,-15.007 38.681,-19.698 l 2.23,4.379 c -15.675,3.2643 -29.012,9.3052 -38.681,19.698 z"
     opacity="0.2"
     id="path1028" />
  <path
     d="m 267.02228,301.21 -2.23,-4.379 c 11.129,-8.6474 24.198,-15.007 38.681,-19.698 l 2.23,4.379 c -15.675,3.2643 -29.012,9.3052 -38.681,19.698 z"
     opacity="0.2"
     id="path1030" />
  <path
     d="m 497.71228,247.19 0.15257,1.3e-4 a 25.888,25.888 0 0 0 24.239,-16.236 84.503,84.503 0 0 0 5.9231,-31.694 c -0.27144,-45.911 -37.622,-83.575 -83.529,-84.21 a 84.744,84.744 0 0 0 -35.277,162.32 25.667,25.667 0 0 0 28.506,-5.2858 84.458,84.458 0 0 1 59.986,-24.894 z"
     fill="#e6e6e6"
     id="path1032" />
  <circle
     cx="454.18228"
     cy="193.56"
     r="27.983999"
     fill="#f9a825"
     id="circle1034" />
  <g
     fill="#3f3d56"
     id="g1050"
     transform="translate(-61.067718)">
    <circle
       cx="454.42999"
       cy="187.12"
       r="3.2967"
       id="circle1036" />
    <circle
       cx="345.60001"
       cy="190.22"
       r="3.2967"
       id="circle1038" />
    <circle
       cx="472"
       cy="152.95"
       r="3.2967"
       id="circle1040" />
    <circle
       cx="471.89999"
       cy="247.97"
       r="3.2967"
       id="circle1042" />
    <circle
       cx="537.20001"
       cy="146.14"
       r="3.2967"
       id="circle1044" />
    <circle
       cx="324.20999"
       cy="236.31"
       r="3.2967"
       id="circle1046" />
    <circle
       cx="348.29999"
       cy="283.73001"
       r="3.2967"
       id="circle1048" />
  </g>
  <circle
     cx="438.63229"
     cy="289.95001"
     r="12.438"
     fill="#ff6584"
     id="circle1052" />
  <path
     d="m 447.96228,290.72 a 9.3281,9.3281 0 0 1 -18.656,0"
     opacity="0.2"
     id="path1054" />
  <path
     d="m 429.30228,289.17 a 9.3281,9.3281 0 0 1 18.656,0"
     opacity="0.2"
     id="path1056" />
  <g
     fill="#ff6584"
     id="g1072"
     transform="translate(-61.067718)">
    <ellipse
       cx="495.04001"
       cy="285.67001"
       rx="0.77733999"
       ry="1.166"
       id="ellipse1058" />
    <ellipse
       cx="499.70001"
       cy="284.12"
       rx="0.77733999"
       ry="1.166"
       id="ellipse1060" />
    <ellipse
       cx="499.70001"
       cy="294.22"
       rx="0.77733999"
       ry="1.166"
       id="ellipse1062" />
    <ellipse
       cx="504.35999"
       cy="288.01001"
       rx="0.77733999"
       ry="1.166"
       id="ellipse1064" />
    <ellipse
       cx="503.59"
       cy="296.56"
       rx="0.77733999"
       ry="1.166"
       id="ellipse1066" />
    <ellipse
       cx="494.26001"
       cy="292.67001"
       rx="0.77733999"
       ry="1.166"
       id="ellipse1068" />
    <circle
       cx="524.57001"
       cy="256.51999"
       r="12.438"
       id="circle1070" />
  </g>
  <path
     d="m 472.83228,257.3 a 9.3281,9.3281 0 0 1 -18.656,0"
     opacity="0.2"
     id="path1074" />
  <path
     d="m 454.18228,255.74 a 9.3281,9.3281 0 0 1 18.656,0"
     opacity="0.2"
     id="path1076" />
  <g
     fill="#ff6584"
     id="g1090"
     transform="translate(-61.067718)">
    <ellipse
       cx="519.90997"
       cy="252.25"
       rx="0.77733999"
       ry="1.166"
       id="ellipse1078" />
    <ellipse
       cx="524.57001"
       cy="250.69"
       rx="0.77733999"
       ry="1.166"
       id="ellipse1080" />
    <ellipse
       cx="524.57001"
       cy="260.79999"
       rx="0.77733999"
       ry="1.166"
       id="ellipse1082" />
    <ellipse
       cx="529.23999"
       cy="254.58"
       rx="0.77733999"
       ry="1.166"
       id="ellipse1084" />
    <ellipse
       cx="528.46002"
       cy="263.13"
       rx="0.77733999"
       ry="1.166"
       id="ellipse1086" />
    <ellipse
       cx="519.13"
       cy="259.23999"
       rx="0.77733999"
       ry="1.166"
       id="ellipse1088" />
  </g>
  <circle
     cx="488.38229"
     cy="273.63"
     r="12.438"
     fill="#6c63ff"
     id="circle1092" />
  <path
     d="m 497.71228,274.4 a 9.3281,9.3281 0 0 1 -18.656,0"
     opacity="0.2"
     id="path1094" />
  <path
     d="m 479.05228,272.84 a 9.3281,9.3281 0 0 1 18.656,0"
     opacity="0.2"
     id="path1096" />
  <g
     fill="#6c63ff"
     id="g1112"
     transform="translate(-61.067718)">
    <ellipse
       cx="544.78998"
       cy="269.35001"
       rx="0.77733999"
       ry="1.166"
       id="ellipse1098" />
    <ellipse
       cx="549.45001"
       cy="267.79999"
       rx="0.77733999"
       ry="1.166"
       id="ellipse1100" />
    <ellipse
       cx="549.45001"
       cy="277.89999"
       rx="0.77733999"
       ry="1.166"
       id="ellipse1102" />
    <ellipse
       cx="554.10999"
       cy="271.67999"
       rx="0.77733999"
       ry="1.166"
       id="ellipse1104" />
    <ellipse
       cx="553.34003"
       cy="280.23001"
       rx="0.77733999"
       ry="1.166"
       id="ellipse1106" />
    <ellipse
       cx="544.01001"
       cy="276.35001"
       rx="0.77733999"
       ry="1.166"
       id="ellipse1108" />
    <circle
       cx="487.26001"
       cy="275.17999"
       r="12.438"
       id="circle1110" />
  </g>
  <path
     d="m 435.52228,275.95 a 9.3281,9.3281 0 0 1 -18.656,0"
     opacity="0.2"
     id="path1114" />
  <path
     d="m 416.86228,274.4 a 9.3281,9.3281 0 0 1 18.656,0"
     opacity="0.2"
     id="path1116" />
  <g
     fill="#6c63ff"
     id="g1132"
     transform="translate(-61.067718)">
    <ellipse
       cx="482.60001"
       cy="270.89999"
       rx="0.77733999"
       ry="1.166"
       id="ellipse1118" />
    <ellipse
       cx="487.26001"
       cy="269.35001"
       rx="0.77733999"
       ry="1.166"
       id="ellipse1120" />
    <ellipse
       cx="487.26001"
       cy="279.45999"
       rx="0.77733999"
       ry="1.166"
       id="ellipse1122" />
    <ellipse
       cx="491.92999"
       cy="273.23999"
       rx="0.77733999"
       ry="1.166"
       id="ellipse1124" />
    <ellipse
       cx="491.14999"
       cy="281.79001"
       rx="0.77733999"
       ry="1.166"
       id="ellipse1126" />
    <ellipse
       cx="481.82001"
       cy="277.89999"
       rx="0.77733999"
       ry="1.166"
       id="ellipse1128" />
    <circle
       cx="515.25"
       cy="280.62"
       r="12.438"
       id="circle1130" />
  </g>
  <path
     d="m 463.50228,281.39 a 9.3281,9.3281 0 1 1 -18.656,0"
     opacity="0.2"
     id="path1134" />
  <path
     d="m 444.85228,279.84 a 9.3281,9.3281 0 1 1 18.656,0"
     opacity="0.2"
     id="path1136" />
  <g
     fill="#6c63ff"
     id="g1150"
     transform="translate(-61.067718)">
    <ellipse
       cx="510.57999"
       cy="276.35001"
       rx="0.77733999"
       ry="1.166"
       id="ellipse1138" />
    <ellipse
       cx="515.25"
       cy="274.79001"
       rx="0.77733999"
       ry="1.166"
       id="ellipse1140" />
    <ellipse
       cx="515.25"
       cy="284.89999"
       rx="0.77733999"
       ry="1.166"
       id="ellipse1142" />
    <ellipse
       cx="519.90997"
       cy="278.67999"
       rx="0.77733999"
       ry="1.166"
       id="ellipse1144" />
    <ellipse
       cx="519.13"
       cy="287.23001"
       rx="0.77733999"
       ry="1.166"
       id="ellipse1146" />
    <ellipse
       cx="509.79999"
       cy="283.34"
       rx="0.77733999"
       ry="1.166"
       id="ellipse1148" />
  </g>
  <circle
     cx="473.61227"
     cy="293.84"
     r="12.438"
     fill="#ff6584"
     id="circle1152" />
  <path
     d="m 482.94228,294.61 a 9.3281,9.3281 0 1 1 -18.656,0"
     opacity="0.2"
     id="path1154" />
  <path
     d="m 464.28228,293.05 a 9.3281,9.3281 0 1 1 18.656,0"
     opacity="0.2"
     id="path1156" />
  <g
     fill="#ff6584"
     id="g1170"
     transform="translate(-61.067718)">
    <ellipse
       cx="530.02002"
       cy="289.56"
       rx="0.77733999"
       ry="1.166"
       id="ellipse1158" />
    <ellipse
       cx="534.67999"
       cy="288.01001"
       rx="0.77733999"
       ry="1.166"
       id="ellipse1160" />
    <ellipse
       cx="534.67999"
       cy="298.10999"
       rx="0.77733999"
       ry="1.166"
       id="ellipse1162" />
    <ellipse
       cx="539.34003"
       cy="291.89001"
       rx="0.77733999"
       ry="1.166"
       id="ellipse1164" />
    <ellipse
       cx="538.57001"
       cy="300.44"
       rx="0.77733999"
       ry="1.166"
       id="ellipse1166" />
    <ellipse
       cx="529.23999"
       cy="296.56"
       rx="0.77733999"
       ry="1.166"
       id="ellipse1168" />
  </g>
  <circle
     cx="313.66229"
     cy="246.42"
     r="3.2967"
     fill="#3f3d56"
     id="circle1172" />
  <g
     fill="#f9a825"
     id="g1194"
     transform="translate(-61.067718)">
    <polygon
       points="388.2,332.86 467.38,354.82 464.34,366.08 385.17,344.12 "
       id="polygon1174" />
    <path
       transform="translate(-156,-207.26)"
       d="m 608.74,569.57 a 218.27,218.27 0 0 1 -82.078,0 v -11.678 a 250.99,250.99 0 0 0 82.078,0 z"
       id="path1176" />
    <path
       transform="translate(-156,-207.26)"
       d="m 617.18,534.54 a 218.27,218.27 0 0 1 -82.078,0 v -11.678 a 250.99,250.99 0 0 0 82.078,0 z"
       id="path1178" />
    <path
       transform="translate(-156,-207.26)"
       d="m 645.56,548.55 a 218.27,218.27 0 0 1 -82.078,0 v -11.678 a 250.99,250.99 0 0 0 82.078,0 z"
       id="path1180" />
    <path
       transform="translate(-156,-207.26)"
       d="m 652.46,561.78 a 218.27,218.27 0 0 1 -82.078,0 v -11.678 a 250.99,250.99 0 0 0 82.078,0 z"
       id="path1182" />
    <polygon
       points="437.68,373.9 518.65,360.3 520.53,371.82 439.55,385.43 "
       id="polygon1184" />
    <path
       transform="translate(-156,-207.26)"
       d="m 664.43,580.58 a 219.97,219.97 0 0 1 -74.58,34.784 l -4.8045,-10.612 a 252.95,252.95 0 0 0 74.58,-34.784 z"
       id="path1186" />
    <path
       transform="translate(-156,-207.26)"
       d="m 657.69,545.17 a 219.97,219.97 0 0 1 -74.58,34.784 l -4.8045,-10.612 a 252.95,252.95 0 0 0 74.58,-34.784 z"
       id="path1188" />
    <path
       transform="translate(-156,-207.26)"
       d="m 689.24,545.87 a 219.97,219.97 0 0 1 -74.58,34.784 l -4.8045,-10.612 a 252.95,252.95 0 0 0 74.58,-34.784 z"
       id="path1190" />
    <path
       transform="translate(-156,-207.26)"
       d="m 700.96,554.97 a 219.97,219.97 0 0 1 -74.58,34.784 l -4.8045,-10.612 a 252.95,252.95 0 0 0 74.58,-34.784 z"
       id="path1192" />
  </g>
  <g
     fill="#00bf71"
     id="g1218"
     transform="translate(-61.067718)">
    <rect
       x="442.95001"
       y="324.92999"
       width="3.8866999"
       height="3.8866999"
       id="rect1196" />
    <rect
       x="454.60999"
       y="392.56"
       width="3.8866999"
       height="3.8866999"
       id="rect1198" />
    <rect
       x="392.42999"
       y="324.92999"
       width="3.8866999"
       height="3.8866999"
       id="rect1200" />
    <rect
       x="482.60001"
       y="373.13"
       width="3.8866999"
       height="3.8866999"
       id="rect1202" />
    <rect
       x="484.92999"
       y="350.57999"
       width="3.8866999"
       height="3.8866999"
       id="rect1204" />
    <rect
       transform="rotate(34.156,836.88116,189.4352)"
       x="574.85999"
       y="545.40002"
       width="5.4414001"
       height="3.1094"
       id="rect1206" />
    <rect
       transform="rotate(34.156,882.75183,197.98071)"
       x="620.71997"
       y="553.95001"
       width="5.4414001"
       height="3.1094"
       id="rect1208" />
    <rect
       transform="rotate(34.156,826.76942,212.75731)"
       x="564.75"
       y="568.71997"
       width="5.4414001"
       height="3.1094"
       id="rect1210" />
    <rect
       transform="rotate(124.16,576.27662,422.17788)"
       x="596.62"
       y="565.60999"
       width="5.4414001"
       height="3.1094"
       id="rect1212" />
    <rect
       transform="rotate(124.16,597.27681,427.62588)"
       x="617.60999"
       y="571.04999"
       width="5.4414001"
       height="3.1094"
       id="rect1214" />
    <rect
       transform="matrix(-0.56144,0.82751,-0.82751,-0.56144,1358.4,98.06)"
       x="673.58002"
       y="552.40002"
       width="5.4414001"
       height="3.1094"
       id="rect1216" />
  </g>
  <metadata
     id="metadata1506">
    <rdf:RDF>
      <cc:Work
         rdf:about="">
        <dc:title>breakfast</dc:title>
      </cc:Work>
    </rdf:RDF>
  </metadata>
</svg>
